<?xml version="1.0" encoding="utf-8"?>
<!-- Generator: Adobe Illustrator 21.1.0, SVG Export Plug-In . SVG Version: 6.00 Build 0)  -->
<svg xmlns="http://www.w3.org/2000/svg" xmlns:xlink="http://www.w3.org/1999/xlink" version="1.1" id="Layer_1" x="0px" y="0px" viewBox="0 0 128 128" style="enable-background:new 0 0 128 128;" xml:space="preserve" width="128px" height="128px">

<g>
	<g>
		<path d="M96,9H32c-5.5,0-10,4.5-10,10v90c0,5.5,4.5,10,10,10h64c5.5,0,10-4.5,10-10V19C106,13.5,101.5,9,96,9z" style="fill:#FFFFFF;"/>
	</g>
	<g>
		<path d="M69,6h23l4,0l-1,0c-1.7,0-3,1.3-3,3v27.2c0,1.8-2.2,2.7-3.4,1.4l-4.5-4.5c-1.2-1.2-3.1-1.2-4.2,0l-4.5,4.5    C74.2,38.8,72,38,72,36.2V9C72,7.3,70.7,6,69,6L69,6z" style="fill:#FF5576;"/>
	</g>
	<g>
		<path d="M86,62H42c-1.7,0-3-1.3-3-3s1.3-3,3-3h44c1.7,0,3,1.3,3,3S87.7,62,86,62z" style="fill:#E9EEF4;"/>
	</g>
	<g>
		<path d="M86,77H42c-1.7,0-3-1.3-3-3s1.3-3,3-3h44c1.7,0,3,1.3,3,3S87.7,77,86,77z" style="fill:#E9EEF4;"/>
	</g>
	<g>
		<path d="M86.2,92H86c-1.7,0-3-1.3-3-3s1.3-3,3-3h0.2c1.7,0,3,1.3,3,3S87.9,92,86.2,92z" style="fill:#E9EEF4;"/>
	</g>
	<g>
		<path d="M70.2,92h-28c-1.7,0-3-1.3-3-3s1.3-3,3-3h28c1.7,0,3,1.3,3,3S71.9,92,70.2,92z" style="fill:#E9EEF4;"/>
	</g>
</g>
<g>
	<g>
		<path d="M105.2,9.8C102.7,7.4,99.5,6,96,6h-1c-1.7,0-3,1.3-3,3s1.3,3,3,3h1c1.9,0,3.6,0.7,5,2.1c1.3,1.3,2,3.1,2,5    l-0.2,90c0,3.9-3.1,7-7,7H32c-3.9,0-7-3.1-7-7V19c0-3.9,3.1-7,7-7h37c1.7,0,3-1.3,3-3s-1.3-3-3-3H32c-7.2,0-13,5.8-13,13v90    c0,7.2,5.8,13,13,13h63.8c7.2,0,13-5.8,13-13l0.2-90C109,15.5,107.7,12.3,105.2,9.8z" style="fill:#444B54;"/>
	</g>
</g>
</svg>
